<svg width="76" height="68" viewBox="0 0 76 68" fill="none" xmlns="http://www.w3.org/2000/svg">
<g clip-path="url(#clip0_1799_3522)">
<path d="M42.4846 30.6459L21.281 50.6614H63.7501" fill="#E4C263"/>
<path d="M42.5155 31.2574L63.7152 50.6072V19.125H21.25V50.6072L42.5155 31.2574Z" fill="#F0CD6C"/>
<path d="M41.3554 38.0337C42.0016 38.6451 43.0504 38.6451 43.6967 38.0337L63.7122 19.1443V19.125H21.3167L41.3554 38.0337Z" fill="#FFEBB3"/>
</g>
<path d="M74.9647 56.8076C74.7717 56.8076 70.2516 56.7433 70.2516 51.2619C70.2516 51.1149 70.1262 51 69.9766 51C69.8222 51 69.7016 51.1195 69.7016 51.2619C69.7016 56.7249 65.1815 56.803 64.9885 56.8076C64.839 56.8076 64.7184 56.9179 64.7135 57.0603C64.7087 57.2027 64.8148 57.3222 64.9644 57.336C68.8574 57.7081 69.5907 60.5063 69.7016 61.972V62.0271C69.6679 62.5371 69.7016 62.8817 69.7016 62.9093C69.7016 62.923 69.7113 62.9368 69.7113 62.946C69.7161 62.9598 69.7161 62.9782 69.7258 62.992C69.7354 63.0057 69.7451 63.0195 69.7547 63.0333C69.7643 63.0471 69.774 63.0563 69.7836 63.0701C69.7981 63.0839 69.8126 63.093 69.8271 63.1022C69.8415 63.1114 69.8512 63.1206 69.8657 63.1252C69.885 63.1344 69.9042 63.1344 69.9235 63.139C69.938 63.1436 69.9477 63.1482 69.9621 63.1482C69.967 63.1482 69.9718 63.1482 69.9766 63.1482C69.9814 63.1482 69.9863 63.1482 69.9911 63.1482C70.0056 63.1482 70.0152 63.1436 70.0297 63.139C70.049 63.1344 70.0683 63.1344 70.0876 63.1252C70.102 63.1206 70.1117 63.1114 70.1262 63.1022C70.1406 63.093 70.1551 63.0839 70.1696 63.0701C70.1792 63.0609 70.1889 63.0471 70.1985 63.0333C70.2082 63.0195 70.2178 63.0057 70.2275 62.992C70.2323 62.9782 70.2371 62.9644 70.2419 62.946C70.2468 62.9322 70.2516 62.923 70.2516 62.9093C70.2564 62.8817 70.2853 62.5509 70.2564 62.0501C70.2902 61.5676 70.3915 60.9244 70.652 60.2673C71.3466 58.5306 72.8083 57.5427 74.9937 57.336C75.1384 57.3222 75.2493 57.2027 75.2445 57.0603C75.2349 56.9179 75.1143 56.8076 74.9647 56.8076Z" fill="#3692FE"/>
<path d="M67.7865 67.3936C67.7865 67.729 67.5019 68.0001 67.1497 68.0001C66.7976 68.0001 66.5129 67.729 66.5129 67.3936C66.5129 67.0582 66.7976 66.7871 67.1497 66.7871C67.5019 66.7871 67.7865 67.0582 67.7865 67.3936Z" fill="#3692FE"/>
<path d="M75.4376 61.3198C75.4376 61.6552 75.153 61.9263 74.8008 61.9263C74.4487 61.9263 74.1641 61.6552 74.1641 61.3198C74.1641 60.9844 74.4487 60.7133 74.8008 60.7133C75.153 60.7133 75.4376 60.9844 75.4376 61.3198Z" fill="#3692FE"/>
<path d="M64.5978 61.0164C64.5978 61.5172 64.1685 61.9261 63.6427 61.9261C63.1168 61.9261 62.6875 61.5172 62.6875 61.0164C62.6875 60.5155 63.1168 60.1066 63.6427 60.1066C64.1685 60.1066 64.5978 60.5155 64.5978 61.0164Z" fill="#3692FE"/>
<path d="M13.0536 9.98288C12.8485 9.98288 8.04247 9.90986 8.04247 3.68755C8.04247 3.52065 7.90911 3.39026 7.75011 3.39026C7.58598 3.39026 7.45775 3.52587 7.45775 3.68755C7.45775 9.889 2.65175 9.97767 2.44658 9.98288C2.28758 9.98288 2.15935 10.1081 2.15422 10.2697C2.14909 10.4314 2.26193 10.567 2.42094 10.5827C6.56015 11.0052 7.33978 14.1815 7.45775 15.8453V15.9079C7.42184 16.4868 7.45775 16.878 7.45775 16.9093C7.45775 16.925 7.46801 16.9406 7.46801 16.951C7.47314 16.9667 7.47314 16.9875 7.4834 17.0032C7.49365 17.0188 7.50391 17.0345 7.51417 17.0501C7.52443 17.0658 7.53468 17.0762 7.54494 17.0919C7.56033 17.1075 7.57572 17.1179 7.59111 17.1284C7.60649 17.1388 7.61675 17.1492 7.63214 17.1544C7.65266 17.1649 7.67317 17.1649 7.69369 17.1701C7.70907 17.1753 7.71933 17.1805 7.73472 17.1805C7.73985 17.1805 7.74498 17.1805 7.75011 17.1805C7.75524 17.1805 7.76037 17.1805 7.7655 17.1805C7.78088 17.1805 7.79114 17.1753 7.80653 17.1701C7.82705 17.1649 7.84756 17.1649 7.86808 17.1544C7.88347 17.1492 7.89373 17.1388 7.90911 17.1284C7.9245 17.1179 7.93989 17.1075 7.95527 17.0919C7.96553 17.0814 7.97579 17.0658 7.98605 17.0501C7.99631 17.0345 8.00657 17.0188 8.01683 17.0032C8.02195 16.9875 8.02708 16.9719 8.03221 16.951C8.03734 16.9354 8.04247 16.925 8.04247 16.9093C8.0476 16.878 8.07837 16.5025 8.0476 15.934C8.0835 15.3863 8.19122 14.6561 8.46819 13.9103C9.20678 11.9388 10.7609 10.8174 13.0844 10.5827C13.2383 10.567 13.3563 10.4314 13.3511 10.2697C13.3409 10.1081 13.2126 9.98288 13.0536 9.98288Z" fill="#3692FE"/>
<path d="M5.42148 21.9997C5.42148 22.3804 5.11886 22.6882 4.74443 22.6882C4.37 22.6882 4.06738 22.3804 4.06738 21.9997C4.06738 21.6189 4.37 21.3112 4.74443 21.3112C5.11886 21.3112 5.42148 21.6189 5.42148 21.9997Z" fill="#3692FE"/>
<path d="M13.5565 15.1047C13.5565 15.4854 13.2539 15.7931 12.8794 15.7931C12.505 15.7931 12.2024 15.4854 12.2024 15.1047C12.2024 14.7239 12.505 14.4162 12.8794 14.4162C13.2539 14.4162 13.5565 14.7239 13.5565 15.1047Z" fill="#3692FE"/>
<path d="M16.1925 25.0351C16.1925 25.4159 15.8899 25.7236 15.5154 25.7236C15.141 25.7236 14.8384 25.4159 14.8384 25.0351C14.8384 24.6544 15.141 24.3467 15.5154 24.3467C15.8899 24.3467 16.1925 24.6544 16.1925 25.0351Z" fill="#3692FE"/>
<path d="M2.03114 14.7604C2.03114 15.3289 1.57465 15.7931 1.01557 15.7931C0.456493 15.7931 0 15.3289 0 14.7604C0 14.1919 0.456493 13.7277 1.01557 13.7277C1.57465 13.7277 2.03114 14.1919 2.03114 14.7604Z" fill="#3692FE"/>
<path d="M16.1107 1.03271C16.1107 1.60122 15.6542 2.06541 15.0952 2.06541C14.5361 2.06541 14.0796 1.60122 14.0796 1.03271C14.0796 0.464196 14.5361 0 15.0952 0C15.6542 0 16.1107 0.464196 16.1107 1.03271Z" fill="#3692FE"/>
<path d="M21.2501 7.56261C21.2501 8.13112 20.7936 8.59532 20.2346 8.59532C19.6755 8.59532 19.219 8.13112 19.219 7.56261C19.219 6.9941 19.6755 6.52991 20.2346 6.52991C20.7936 6.52991 21.2501 6.9941 21.2501 7.56261Z" fill="#3692FE"/>
<defs>
<clipPath id="clip0_1799_3522">
<rect width="42.5" height="31.5364" fill="white" transform="translate(21.25 19.125)"/>
</clipPath>
</defs>
</svg>
