<svg width="82" height="80" viewBox="0 0 82 80" fill="none" xmlns="http://www.w3.org/2000/svg">
<path fill-rule="evenodd" clip-rule="evenodd" d="M40.6587 80C63.1134 80 81.3167 62.0914 81.3167 40C81.3167 17.9087 63.1134 0 40.6587 0C18.2034 0 0 17.9087 0 40C0 62.0914 18.2034 80 40.6587 80ZM33.2047 58.3337C34.1935 58.3337 34.6452 57.9009 35.1915 57.378L35.2379 57.3336L40.1212 52.6619L50.2812 60.0469C52.1509 61.0618 53.5007 60.5363 53.966 58.3391L60.6358 27.418C61.3189 24.7243 59.5924 23.5027 57.8037 24.3018L18.6396 39.1588C15.9661 40.2137 15.9818 41.6811 18.1522 42.335L28.2026 45.4208L51.4705 30.9794C52.5688 30.3237 53.5769 30.6764 52.7496 31.3986L33.8968 48.1361L33.2047 58.3337Z" fill="#3F9FDC"/>
</svg>
