<svg width="82" height="80" viewBox="0 0 82 80" fill="none" xmlns="http://www.w3.org/2000/svg">
<path fill-rule="evenodd" clip-rule="evenodd" d="M40.6587 0C18.2034 0 0 17.9087 0 40C0 62.0914 18.2034 80 40.6587 80C63.1134 80 81.3167 62.0914 81.3167 40C81.3167 17.9087 63.1134 0 40.6587 0ZM39.5262 33.8968L39.4412 32.5127C39.1849 28.9252 41.4318 25.6487 44.987 24.3775C46.2949 23.9256 48.5131 23.869 49.9638 24.2646C50.5324 24.4341 51.6131 24.9988 52.3811 25.5073L53.7747 26.4395L55.3105 25.9591C56.1636 25.7049 57.3011 25.2816 57.8131 24.9988C58.2964 24.7446 58.7231 24.6036 58.7231 24.6883C58.7231 25.1683 57.6709 26.8066 56.7894 27.7107C55.595 28.9819 55.936 29.0947 58.3536 28.2473C59.8037 27.7673 59.8322 27.7673 59.5477 28.3039C59.377 28.5862 58.4959 29.5751 57.5568 30.4788C55.9644 32.0323 55.8794 32.2018 55.8794 33.5011C55.8794 35.5068 54.9119 39.6871 53.945 41.9754C52.1536 46.2688 48.3143 50.7038 44.4746 52.9352C39.0711 56.0704 31.876 56.8612 25.8186 55.0254C23.7991 54.4039 20.3295 52.8221 20.3295 52.5396C20.3295 52.455 21.3816 52.3419 22.6615 52.3134C25.3349 52.2572 28.0083 51.5227 30.2832 50.2233L31.819 49.3197L30.0559 48.7264C27.5532 47.8791 25.3064 45.9298 24.7376 44.094C24.5672 43.5007 24.6239 43.4722 26.2167 43.4722L27.8661 43.4441L26.4726 42.7946C24.8231 41.9754 23.3159 40.5913 22.5763 39.1788C22.036 38.1621 21.3535 35.5918 21.5523 35.3936C21.6094 35.309 22.2067 35.4783 22.8893 35.7045C24.8516 36.4106 25.1075 36.241 23.9699 35.0547C21.8368 32.9079 21.1827 29.7161 22.2067 26.6937L22.69 25.3378L24.5672 27.1741C28.4064 30.8744 32.9281 33.0774 38.1042 33.7272L39.5262 33.8968Z" fill="#2AA3EF"/>
</svg>
