<svg width="16" height="14" viewBox="0 0 16 14" fill="none" xmlns="http://www.w3.org/2000/svg">
<path d="M7.76902 3.46042L7.80358 4.02307L7.22552 3.95414C5.12142 3.68997 3.28331 2.79444 1.72265 1.29025L0.959549 0.543783L0.763102 1.09498C0.346846 2.32358 0.612704 3.62108 1.47982 4.49375C1.94229 4.97599 1.83827 5.04495 1.04055 4.75792C0.763102 4.66596 0.520275 4.59713 0.497093 4.63155C0.416256 4.71208 0.693706 5.75696 0.913336 6.17022C1.21398 6.74442 1.82668 7.30706 2.49719 7.64007L3.06368 7.90411L2.39317 7.91553C1.74568 7.91553 1.72265 7.9271 1.7919 8.16828C2.02313 8.91456 2.93647 9.70696 3.95382 10.0514L4.67054 10.2926L4.04625 10.6599C3.12149 11.1881 2.03472 11.4867 0.947958 11.5095C0.427683 11.5211 0 11.5671 0 11.6015C0 11.7163 1.41043 12.3593 2.23133 12.612C4.69374 13.3582 7.61856 13.0368 9.81513 11.7623C11.376 10.8552 12.9367 9.05237 13.6649 7.30706C14.0579 6.37686 14.4513 4.67753 14.4513 3.86222C14.4513 3.33405 14.4858 3.26515 15.1331 2.63363C15.5148 2.26627 15.8731 1.8643 15.9424 1.74953C16.0581 1.5314 16.0465 1.5314 15.457 1.7265C14.4742 2.071 14.3356 2.02512 14.8212 1.50838C15.1795 1.14086 15.457 0.348506 15.457 0.153408C15.457 0.153408 15.4338 0.302637 15.2373 0.405995C15.0292 0.520931 14.5668 0.693011 14.22 0.79637L13.5957 0.991633L13.0292 0.612684C12.717 0.405994 12.2777 0.176439 12.0465 0.107538C11.4568 -0.0532818 10.5551 -0.0302639 10.0234 0.153408C8.57821 0.670159 7.66481 2.0021 7.76902 3.46042Z" fill="white"/>
</svg>
