<svg width="86" height="86" viewBox="0 0 86 86" fill="none" xmlns="http://www.w3.org/2000/svg">
    <rect width="86" height="86" rx="6" fill="#D74722"/>
    <path fill-rule="evenodd" clip-rule="evenodd" d="M27.3565 39.8925C25.663 39.8925 24.291 41.2647 24.291 42.9582C24.291 44.6509 25.663 46.023 27.3565 46.023C29.049 46.023 30.421 44.6509 30.421 42.9582C30.421 41.2647 29.049 39.8925 27.3565 39.8925ZM49.2389 53.8234C47.773 54.6701 47.2703 56.5437 48.1171 58.009C48.9629 59.475 50.8363 59.9776 52.3022 59.1308C53.768 58.285 54.2706 56.4114 53.4239 54.9452C52.5782 53.4801 50.7037 52.9776 49.2389 53.8234ZM34.0136 42.9583C34.0136 39.9292 35.518 37.2532 37.8199 35.6327L35.5792 31.8795C32.8978 33.6721 30.9027 36.4113 30.0735 39.6194C31.041 40.409 31.6603 41.6109 31.6603 42.9581C31.6603 44.3046 31.041 45.5065 30.0735 46.296C30.9016 49.5051 32.8967 52.2445 35.5792 54.0371L37.8199 50.2829C35.518 48.6634 34.0136 45.9874 34.0136 42.9583ZM42.9655 34.0046C47.6422 34.0046 51.4791 37.5906 51.8819 42.164L56.249 42.0996C56.0341 38.7233 54.5593 35.6923 52.2931 33.4634C51.1278 33.9037 49.7818 33.8364 48.6183 33.1656C47.4528 32.493 46.7221 31.3583 46.5224 30.1266C45.3897 29.814 44.1976 29.6428 42.9652 29.6428C40.8466 29.6428 38.8435 30.1405 37.065 31.0209L39.1945 34.8374C40.3402 34.3042 41.6182 34.0046 42.9655 34.0046ZM42.9655 51.911C41.6182 51.911 40.3402 51.6112 39.1947 51.0782L37.0651 54.8946C38.8436 55.776 40.8467 56.2739 42.9655 56.2739C44.1979 56.2739 45.3899 56.1026 46.5225 55.789C46.7222 54.5573 47.4532 53.4237 48.6184 52.7498C49.7827 52.078 51.1279 52.0119 52.2933 52.4522C54.5594 50.2233 56.0342 47.1923 56.2491 43.8159L51.8809 43.7515C51.4791 48.3261 47.6423 51.911 42.9655 51.911ZM49.2378 32.0913C50.7037 32.9379 52.5773 32.4364 53.423 30.9704C54.2696 29.5043 53.7682 27.6306 52.3022 26.7837C50.8363 25.9379 48.9629 26.4405 48.1159 27.9065C47.2704 29.3718 47.7728 31.2455 49.2378 32.0913Z" fill="white"/>
</svg>