<svg width="26" height="19" viewBox="0 0 26 19" fill="none" xmlns="http://www.w3.org/2000/svg">
<path d="M25.2902 3.6356C25.0034 2.56946 24.1629 1.72904 23.0969 1.44196C21.1495 0.909119 13.3596 0.909119 13.3596 0.909119C13.3596 0.909119 5.57011 0.909119 3.62269 1.42176C2.57721 1.70853 1.71613 2.56961 1.42936 3.6356C0.91687 5.58286 0.91687 9.62124 0.91687 9.62124C0.91687 9.62124 0.91687 13.68 1.42936 15.6069C1.71643 16.6729 2.55671 17.5133 3.62284 17.8004C5.59062 18.3334 13.3599 18.3334 13.3599 18.3334C13.3599 18.3334 21.1495 18.3334 23.0969 17.8207C24.163 17.5338 25.0034 16.6934 25.2905 15.6274C25.8029 13.68 25.8029 9.64174 25.8029 9.64174C25.8029 9.64174 25.8234 5.58286 25.2902 3.6356ZM10.8795 13.352V5.89045L17.3572 9.62124L10.8795 13.352Z" fill="white"/>
</svg>
